<mxfile host="Electron" modified="2023-04-03T14:59:03.730Z" agent="Mozilla/5.0 (X11; Linux x86_64) AppleWebKit/537.36 (KHTML, like Gecko) draw.io/21.1.2 Chrome/106.0.5249.199 Electron/21.4.3 Safari/537.36" etag="InK7bv2C5kRkDe4wGOtE" version="21.1.2" type="device">
  <diagram name="Page-1" id="c4acf3e9-155e-7222-9cf6-157b1a14988f">
    <mxGraphModel dx="2212" dy="870" grid="1" gridSize="10" guides="1" tooltips="1" connect="1" arrows="1" fold="1" page="1" pageScale="1" pageWidth="850" pageHeight="1100" background="none" math="0" shadow="0">
      <root>
        <mxCell id="0" />
        <mxCell id="1" parent="0" />
        <mxCell id="0ZI9VP_GlUmrBaYBSFG8-7" value="Console Assist" style="text;align=center;fontStyle=1;verticalAlign=middle;spacingLeft=3;spacingRight=3;strokeColor=none;rotatable=0;points=[[0,0.5],[1,0.5]];portConstraint=eastwest;html=1;" parent="1" vertex="1">
          <mxGeometry x="325" y="10" width="200" height="26" as="geometry" />
        </mxCell>
        <mxCell id="Dd3ZmdGYyWYELju7Y7oA-98" style="edgeStyle=orthogonalEdgeStyle;rounded=0;orthogonalLoop=1;jettySize=auto;html=1;entryX=0.5;entryY=0;entryDx=0;entryDy=0;" parent="1" source="Dd3ZmdGYyWYELju7Y7oA-8" target="Dd3ZmdGYyWYELju7Y7oA-72" edge="1">
          <mxGeometry relative="1" as="geometry" />
        </mxCell>
        <mxCell id="Dd3ZmdGYyWYELju7Y7oA-167" style="edgeStyle=orthogonalEdgeStyle;rounded=0;orthogonalLoop=1;jettySize=auto;html=1;" parent="1" source="Dd3ZmdGYyWYELju7Y7oA-8" target="Dd3ZmdGYyWYELju7Y7oA-156" edge="1">
          <mxGeometry relative="1" as="geometry" />
        </mxCell>
        <mxCell id="Dd3ZmdGYyWYELju7Y7oA-173" style="edgeStyle=orthogonalEdgeStyle;rounded=0;orthogonalLoop=1;jettySize=auto;html=1;" parent="1" source="Dd3ZmdGYyWYELju7Y7oA-8" target="Dd3ZmdGYyWYELju7Y7oA-172" edge="1">
          <mxGeometry relative="1" as="geometry">
            <Array as="points">
              <mxPoint x="1030" y="145" />
            </Array>
          </mxGeometry>
        </mxCell>
        <mxCell id="Dd3ZmdGYyWYELju7Y7oA-8" value="Handler" style="swimlane;fontStyle=1;align=center;verticalAlign=top;childLayout=stackLayout;horizontal=1;startSize=26;horizontalStack=0;resizeParent=1;resizeParentMax=0;resizeLast=0;collapsible=1;marginBottom=0;whiteSpace=wrap;html=1;" parent="1" vertex="1">
          <mxGeometry x="310" y="50" width="230" height="190" as="geometry" />
        </mxCell>
        <mxCell id="Dd3ZmdGYyWYELju7Y7oA-9" value="+ help" style="text;strokeColor=none;fillColor=none;align=left;verticalAlign=top;spacingLeft=4;spacingRight=4;overflow=hidden;rotatable=0;points=[[0,0.5],[1,0.5]];portConstraint=eastwest;whiteSpace=wrap;html=1;" parent="Dd3ZmdGYyWYELju7Y7oA-8" vertex="1">
          <mxGeometry y="26" width="230" height="26" as="geometry" />
        </mxCell>
        <mxCell id="Dd3ZmdGYyWYELju7Y7oA-16" value="+ database" style="text;strokeColor=none;fillColor=none;align=left;verticalAlign=top;spacingLeft=4;spacingRight=4;overflow=hidden;rotatable=0;points=[[0,0.5],[1,0.5]];portConstraint=eastwest;whiteSpace=wrap;html=1;" parent="Dd3ZmdGYyWYELju7Y7oA-8" vertex="1">
          <mxGeometry y="52" width="230" height="26" as="geometry" />
        </mxCell>
        <mxCell id="Dd3ZmdGYyWYELju7Y7oA-15" value="+ commands" style="text;strokeColor=none;fillColor=none;align=left;verticalAlign=top;spacingLeft=4;spacingRight=4;overflow=hidden;rotatable=0;points=[[0,0.5],[1,0.5]];portConstraint=eastwest;whiteSpace=wrap;html=1;" parent="Dd3ZmdGYyWYELju7Y7oA-8" vertex="1">
          <mxGeometry y="78" width="230" height="26" as="geometry" />
        </mxCell>
        <mxCell id="Dd3ZmdGYyWYELju7Y7oA-10" value="" style="line;strokeWidth=1;fillColor=none;align=left;verticalAlign=middle;spacingTop=-1;spacingLeft=3;spacingRight=3;rotatable=0;labelPosition=right;points=[];portConstraint=eastwest;strokeColor=inherit;" parent="Dd3ZmdGYyWYELju7Y7oA-8" vertex="1">
          <mxGeometry y="104" width="230" height="8" as="geometry" />
        </mxCell>
        <mxCell id="Dd3ZmdGYyWYELju7Y7oA-12" value="+ get_command_suggestion(self, query)" style="text;strokeColor=none;fillColor=none;align=left;verticalAlign=top;spacingLeft=4;spacingRight=4;overflow=hidden;rotatable=0;points=[[0,0.5],[1,0.5]];portConstraint=eastwest;whiteSpace=wrap;html=1;" parent="Dd3ZmdGYyWYELju7Y7oA-8" vertex="1">
          <mxGeometry y="112" width="230" height="26" as="geometry" />
        </mxCell>
        <mxCell id="Dd3ZmdGYyWYELju7Y7oA-13" value="+ execute_commands(self, query)" style="text;strokeColor=none;fillColor=none;align=left;verticalAlign=top;spacingLeft=4;spacingRight=4;overflow=hidden;rotatable=0;points=[[0,0.5],[1,0.5]];portConstraint=eastwest;whiteSpace=wrap;html=1;" parent="Dd3ZmdGYyWYELju7Y7oA-8" vertex="1">
          <mxGeometry y="138" width="230" height="26" as="geometry" />
        </mxCell>
        <mxCell id="Dd3ZmdGYyWYELju7Y7oA-11" value="+ run(self)" style="text;strokeColor=none;fillColor=none;align=left;verticalAlign=top;spacingLeft=4;spacingRight=4;overflow=hidden;rotatable=0;points=[[0,0.5],[1,0.5]];portConstraint=eastwest;whiteSpace=wrap;html=1;" parent="Dd3ZmdGYyWYELju7Y7oA-8" vertex="1">
          <mxGeometry y="164" width="230" height="26" as="geometry" />
        </mxCell>
        <mxCell id="Dd3ZmdGYyWYELju7Y7oA-25" style="edgeStyle=orthogonalEdgeStyle;rounded=0;orthogonalLoop=1;jettySize=auto;html=1;" parent="1" source="Dd3ZmdGYyWYELju7Y7oA-20" target="Dd3ZmdGYyWYELju7Y7oA-8" edge="1">
          <mxGeometry relative="1" as="geometry">
            <Array as="points">
              <mxPoint x="-140" y="90" />
            </Array>
          </mxGeometry>
        </mxCell>
        <mxCell id="Dd3ZmdGYyWYELju7Y7oA-20" value="UserDict" style="swimlane;fontStyle=0;childLayout=stackLayout;horizontal=1;startSize=26;fillColor=none;horizontalStack=0;resizeParent=1;resizeParentMax=0;resizeLast=0;collapsible=1;marginBottom=0;whiteSpace=wrap;html=1;" parent="1" vertex="1">
          <mxGeometry x="-210" y="300" width="140" height="52" as="geometry" />
        </mxCell>
        <mxCell id="Dd3ZmdGYyWYELju7Y7oA-21" value="+ data" style="text;strokeColor=none;fillColor=none;align=left;verticalAlign=top;spacingLeft=4;spacingRight=4;overflow=hidden;rotatable=0;points=[[0,0.5],[1,0.5]];portConstraint=eastwest;whiteSpace=wrap;html=1;" parent="Dd3ZmdGYyWYELju7Y7oA-20" vertex="1">
          <mxGeometry y="26" width="140" height="26" as="geometry" />
        </mxCell>
        <mxCell id="Dd3ZmdGYyWYELju7Y7oA-30" style="edgeStyle=orthogonalEdgeStyle;rounded=0;orthogonalLoop=1;jettySize=auto;html=1;" parent="1" source="Dd3ZmdGYyWYELju7Y7oA-26" edge="1">
          <mxGeometry relative="1" as="geometry">
            <mxPoint x="-140" y="350" as="targetPoint" />
          </mxGeometry>
        </mxCell>
        <mxCell id="Dd3ZmdGYyWYELju7Y7oA-26" value="AddressBook" style="swimlane;fontStyle=1;align=center;verticalAlign=top;childLayout=stackLayout;horizontal=1;startSize=26;horizontalStack=0;resizeParent=1;resizeParentMax=0;resizeLast=0;collapsible=1;marginBottom=0;whiteSpace=wrap;html=1;" parent="1" vertex="1">
          <mxGeometry x="-255" y="390" width="230" height="268" as="geometry" />
        </mxCell>
        <mxCell id="Dd3ZmdGYyWYELju7Y7oA-27" value="+ data" style="text;strokeColor=none;fillColor=none;align=left;verticalAlign=top;spacingLeft=4;spacingRight=4;overflow=hidden;rotatable=0;points=[[0,0.5],[1,0.5]];portConstraint=eastwest;whiteSpace=wrap;html=1;" parent="Dd3ZmdGYyWYELju7Y7oA-26" vertex="1">
          <mxGeometry y="26" width="230" height="26" as="geometry" />
        </mxCell>
        <mxCell id="Dd3ZmdGYyWYELju7Y7oA-31" value="- instance" style="text;strokeColor=none;fillColor=none;align=left;verticalAlign=top;spacingLeft=4;spacingRight=4;overflow=hidden;rotatable=0;points=[[0,0.5],[1,0.5]];portConstraint=eastwest;whiteSpace=wrap;html=1;" parent="Dd3ZmdGYyWYELju7Y7oA-26" vertex="1">
          <mxGeometry y="52" width="230" height="26" as="geometry" />
        </mxCell>
        <mxCell id="Dd3ZmdGYyWYELju7Y7oA-32" value="+ file_name" style="text;strokeColor=none;fillColor=none;align=left;verticalAlign=top;spacingLeft=4;spacingRight=4;overflow=hidden;rotatable=0;points=[[0,0.5],[1,0.5]];portConstraint=eastwest;whiteSpace=wrap;html=1;" parent="Dd3ZmdGYyWYELju7Y7oA-26" vertex="1">
          <mxGeometry y="78" width="230" height="26" as="geometry" />
        </mxCell>
        <mxCell id="Dd3ZmdGYyWYELju7Y7oA-28" value="" style="line;strokeWidth=1;fillColor=none;align=left;verticalAlign=middle;spacingTop=-1;spacingLeft=3;spacingRight=3;rotatable=0;labelPosition=right;points=[];portConstraint=eastwest;strokeColor=inherit;" parent="Dd3ZmdGYyWYELju7Y7oA-26" vertex="1">
          <mxGeometry y="104" width="230" height="8" as="geometry" />
        </mxCell>
        <mxCell id="Dd3ZmdGYyWYELju7Y7oA-29" value="- new (cls, *args, **kwargs)" style="text;strokeColor=none;fillColor=none;align=left;verticalAlign=top;spacingLeft=4;spacingRight=4;overflow=hidden;rotatable=0;points=[[0,0.5],[1,0.5]];portConstraint=eastwest;whiteSpace=wrap;html=1;" parent="Dd3ZmdGYyWYELju7Y7oA-26" vertex="1">
          <mxGeometry y="112" width="230" height="26" as="geometry" />
        </mxCell>
        <mxCell id="Dd3ZmdGYyWYELju7Y7oA-35" value="+ show_all_records(self)" style="text;strokeColor=none;fillColor=none;align=left;verticalAlign=top;spacingLeft=4;spacingRight=4;overflow=hidden;rotatable=0;points=[[0,0.5],[1,0.5]];portConstraint=eastwest;whiteSpace=wrap;html=1;" parent="Dd3ZmdGYyWYELju7Y7oA-26" vertex="1">
          <mxGeometry y="138" width="230" height="26" as="geometry" />
        </mxCell>
        <mxCell id="Dd3ZmdGYyWYELju7Y7oA-36" value="+ iterate(self, n=1)" style="text;strokeColor=none;fillColor=none;align=left;verticalAlign=top;spacingLeft=4;spacingRight=4;overflow=hidden;rotatable=0;points=[[0,0.5],[1,0.5]];portConstraint=eastwest;whiteSpace=wrap;html=1;" parent="Dd3ZmdGYyWYELju7Y7oA-26" vertex="1">
          <mxGeometry y="164" width="230" height="26" as="geometry" />
        </mxCell>
        <mxCell id="Dd3ZmdGYyWYELju7Y7oA-34" value="+ add_record(self, record)" style="text;strokeColor=none;fillColor=none;align=left;verticalAlign=top;spacingLeft=4;spacingRight=4;overflow=hidden;rotatable=0;points=[[0,0.5],[1,0.5]];portConstraint=eastwest;whiteSpace=wrap;html=1;" parent="Dd3ZmdGYyWYELju7Y7oA-26" vertex="1">
          <mxGeometry y="190" width="230" height="26" as="geometry" />
        </mxCell>
        <mxCell id="Dd3ZmdGYyWYELju7Y7oA-37" value="+ save_contacts(self)" style="text;strokeColor=none;fillColor=none;align=left;verticalAlign=top;spacingLeft=4;spacingRight=4;overflow=hidden;rotatable=0;points=[[0,0.5],[1,0.5]];portConstraint=eastwest;whiteSpace=wrap;html=1;" parent="Dd3ZmdGYyWYELju7Y7oA-26" vertex="1">
          <mxGeometry y="216" width="230" height="26" as="geometry" />
        </mxCell>
        <mxCell id="Dd3ZmdGYyWYELju7Y7oA-38" value="+ load_contacts(self)" style="text;strokeColor=none;fillColor=none;align=left;verticalAlign=top;spacingLeft=4;spacingRight=4;overflow=hidden;rotatable=0;points=[[0,0.5],[1,0.5]];portConstraint=eastwest;whiteSpace=wrap;html=1;" parent="Dd3ZmdGYyWYELju7Y7oA-26" vertex="1">
          <mxGeometry y="242" width="230" height="26" as="geometry" />
        </mxCell>
        <mxCell id="Dd3ZmdGYyWYELju7Y7oA-96" style="edgeStyle=orthogonalEdgeStyle;rounded=0;orthogonalLoop=1;jettySize=auto;html=1;" parent="1" source="Dd3ZmdGYyWYELju7Y7oA-39" target="Dd3ZmdGYyWYELju7Y7oA-81" edge="1">
          <mxGeometry relative="1" as="geometry" />
        </mxCell>
        <mxCell id="Dd3ZmdGYyWYELju7Y7oA-99" style="edgeStyle=orthogonalEdgeStyle;rounded=0;orthogonalLoop=1;jettySize=auto;html=1;entryX=0.978;entryY=0.067;entryDx=0;entryDy=0;entryPerimeter=0;endArrow=diamond;endFill=1;startArrow=classic;startFill=1;" parent="1" source="Dd3ZmdGYyWYELju7Y7oA-72" target="Dd3ZmdGYyWYELju7Y7oA-26" edge="1">
          <mxGeometry relative="1" as="geometry" />
        </mxCell>
        <mxCell id="Dd3ZmdGYyWYELju7Y7oA-72" value="CommandsHandler" style="swimlane;fontStyle=1;align=center;verticalAlign=top;childLayout=stackLayout;horizontal=1;startSize=26;horizontalStack=0;resizeParent=1;resizeParentMax=0;resizeLast=0;collapsible=1;marginBottom=0;whiteSpace=wrap;html=1;" parent="1" vertex="1">
          <mxGeometry x="30" y="300" width="190" height="216" as="geometry" />
        </mxCell>
        <mxCell id="Dd3ZmdGYyWYELju7Y7oA-73" value="+ address_book" style="text;strokeColor=none;fillColor=none;align=left;verticalAlign=top;spacingLeft=4;spacingRight=4;overflow=hidden;rotatable=0;points=[[0,0.5],[1,0.5]];portConstraint=eastwest;whiteSpace=wrap;html=1;" parent="Dd3ZmdGYyWYELju7Y7oA-72" vertex="1">
          <mxGeometry y="26" width="190" height="26" as="geometry" />
        </mxCell>
        <mxCell id="Dd3ZmdGYyWYELju7Y7oA-74" value="" style="line;strokeWidth=1;fillColor=none;align=left;verticalAlign=middle;spacingTop=-1;spacingLeft=3;spacingRight=3;rotatable=0;labelPosition=right;points=[];portConstraint=eastwest;strokeColor=inherit;" parent="Dd3ZmdGYyWYELju7Y7oA-72" vertex="1">
          <mxGeometry y="52" width="190" height="8" as="geometry" />
        </mxCell>
        <mxCell id="Dd3ZmdGYyWYELju7Y7oA-75" value="+ add_contacts(self)" style="text;strokeColor=none;fillColor=none;align=left;verticalAlign=top;spacingLeft=4;spacingRight=4;overflow=hidden;rotatable=0;points=[[0,0.5],[1,0.5]];portConstraint=eastwest;whiteSpace=wrap;html=1;" parent="Dd3ZmdGYyWYELju7Y7oA-72" vertex="1">
          <mxGeometry y="60" width="190" height="26" as="geometry" />
        </mxCell>
        <mxCell id="Dd3ZmdGYyWYELju7Y7oA-76" value="+ show_all_contacts(self)" style="text;strokeColor=none;fillColor=none;align=left;verticalAlign=top;spacingLeft=4;spacingRight=4;overflow=hidden;rotatable=0;points=[[0,0.5],[1,0.5]];portConstraint=eastwest;whiteSpace=wrap;html=1;" parent="Dd3ZmdGYyWYELju7Y7oA-72" vertex="1">
          <mxGeometry y="86" width="190" height="26" as="geometry" />
        </mxCell>
        <mxCell id="Dd3ZmdGYyWYELju7Y7oA-79" value="+ find_contacts(self)" style="text;strokeColor=none;fillColor=none;align=left;verticalAlign=top;spacingLeft=4;spacingRight=4;overflow=hidden;rotatable=0;points=[[0,0.5],[1,0.5]];portConstraint=eastwest;whiteSpace=wrap;html=1;" parent="Dd3ZmdGYyWYELju7Y7oA-72" vertex="1">
          <mxGeometry y="112" width="190" height="26" as="geometry" />
        </mxCell>
        <mxCell id="Dd3ZmdGYyWYELju7Y7oA-80" value="+ birthday_contacts(self)" style="text;strokeColor=none;fillColor=none;align=left;verticalAlign=top;spacingLeft=4;spacingRight=4;overflow=hidden;rotatable=0;points=[[0,0.5],[1,0.5]];portConstraint=eastwest;whiteSpace=wrap;html=1;" parent="Dd3ZmdGYyWYELju7Y7oA-72" vertex="1">
          <mxGeometry y="138" width="190" height="26" as="geometry" />
        </mxCell>
        <mxCell id="Dd3ZmdGYyWYELju7Y7oA-78" value="+ change_contacts(self)" style="text;strokeColor=none;fillColor=none;align=left;verticalAlign=top;spacingLeft=4;spacingRight=4;overflow=hidden;rotatable=0;points=[[0,0.5],[1,0.5]];portConstraint=eastwest;whiteSpace=wrap;html=1;" parent="Dd3ZmdGYyWYELju7Y7oA-72" vertex="1">
          <mxGeometry y="164" width="190" height="26" as="geometry" />
        </mxCell>
        <mxCell id="Dd3ZmdGYyWYELju7Y7oA-77" value="+ remove_contacts(self)" style="text;strokeColor=none;fillColor=none;align=left;verticalAlign=top;spacingLeft=4;spacingRight=4;overflow=hidden;rotatable=0;points=[[0,0.5],[1,0.5]];portConstraint=eastwest;whiteSpace=wrap;html=1;" parent="Dd3ZmdGYyWYELju7Y7oA-72" vertex="1">
          <mxGeometry y="190" width="190" height="26" as="geometry" />
        </mxCell>
        <mxCell id="Dd3ZmdGYyWYELju7Y7oA-94" style="edgeStyle=orthogonalEdgeStyle;rounded=0;orthogonalLoop=1;jettySize=auto;html=1;" parent="1" source="Dd3ZmdGYyWYELju7Y7oA-81" target="Dd3ZmdGYyWYELju7Y7oA-26" edge="1">
          <mxGeometry relative="1" as="geometry">
            <Array as="points">
              <mxPoint x="-150" y="690" />
              <mxPoint x="-150" y="690" />
            </Array>
          </mxGeometry>
        </mxCell>
        <mxCell id="Dd3ZmdGYyWYELju7Y7oA-81" value="Record" style="swimlane;fontStyle=1;align=center;verticalAlign=top;childLayout=stackLayout;horizontal=1;startSize=26;horizontalStack=0;resizeParent=1;resizeParentMax=0;resizeLast=0;collapsible=1;marginBottom=0;whiteSpace=wrap;html=1;" parent="1" vertex="1">
          <mxGeometry x="-310" y="710" width="340" height="320" as="geometry" />
        </mxCell>
        <mxCell id="Dd3ZmdGYyWYELju7Y7oA-82" value="+ birthday" style="text;strokeColor=none;fillColor=none;align=left;verticalAlign=top;spacingLeft=4;spacingRight=4;overflow=hidden;rotatable=0;points=[[0,0.5],[1,0.5]];portConstraint=eastwest;whiteSpace=wrap;html=1;" parent="Dd3ZmdGYyWYELju7Y7oA-81" vertex="1">
          <mxGeometry y="26" width="340" height="26" as="geometry" />
        </mxCell>
        <mxCell id="Dd3ZmdGYyWYELju7Y7oA-85" value="+ home_address" style="text;strokeColor=none;fillColor=none;align=left;verticalAlign=top;spacingLeft=4;spacingRight=4;overflow=hidden;rotatable=0;points=[[0,0.5],[1,0.5]];portConstraint=eastwest;whiteSpace=wrap;html=1;" parent="Dd3ZmdGYyWYELju7Y7oA-81" vertex="1">
          <mxGeometry y="52" width="340" height="26" as="geometry" />
        </mxCell>
        <mxCell id="Dd3ZmdGYyWYELju7Y7oA-88" value="+ name" style="text;strokeColor=none;fillColor=none;align=left;verticalAlign=top;spacingLeft=4;spacingRight=4;overflow=hidden;rotatable=0;points=[[0,0.5],[1,0.5]];portConstraint=eastwest;whiteSpace=wrap;html=1;" parent="Dd3ZmdGYyWYELju7Y7oA-81" vertex="1">
          <mxGeometry y="78" width="340" height="26" as="geometry" />
        </mxCell>
        <mxCell id="Dd3ZmdGYyWYELju7Y7oA-87" value="+ phones" style="text;strokeColor=none;fillColor=none;align=left;verticalAlign=top;spacingLeft=4;spacingRight=4;overflow=hidden;rotatable=0;points=[[0,0.5],[1,0.5]];portConstraint=eastwest;whiteSpace=wrap;html=1;" parent="Dd3ZmdGYyWYELju7Y7oA-81" vertex="1">
          <mxGeometry y="104" width="340" height="26" as="geometry" />
        </mxCell>
        <mxCell id="Dd3ZmdGYyWYELju7Y7oA-86" value="+ email" style="text;strokeColor=none;fillColor=none;align=left;verticalAlign=top;spacingLeft=4;spacingRight=4;overflow=hidden;rotatable=0;points=[[0,0.5],[1,0.5]];portConstraint=eastwest;whiteSpace=wrap;html=1;" parent="Dd3ZmdGYyWYELju7Y7oA-81" vertex="1">
          <mxGeometry y="130" width="340" height="26" as="geometry" />
        </mxCell>
        <mxCell id="Dd3ZmdGYyWYELju7Y7oA-83" value="" style="line;strokeWidth=1;fillColor=none;align=left;verticalAlign=middle;spacingTop=-1;spacingLeft=3;spacingRight=3;rotatable=0;labelPosition=right;points=[];portConstraint=eastwest;strokeColor=inherit;" parent="Dd3ZmdGYyWYELju7Y7oA-81" vertex="1">
          <mxGeometry y="156" width="340" height="8" as="geometry" />
        </mxCell>
        <mxCell id="Dd3ZmdGYyWYELju7Y7oA-84" value="+ add_phones(self, phone)" style="text;strokeColor=none;fillColor=none;align=left;verticalAlign=top;spacingLeft=4;spacingRight=4;overflow=hidden;rotatable=0;points=[[0,0.5],[1,0.5]];portConstraint=eastwest;whiteSpace=wrap;html=1;" parent="Dd3ZmdGYyWYELju7Y7oA-81" vertex="1">
          <mxGeometry y="164" width="340" height="26" as="geometry" />
        </mxCell>
        <mxCell id="Dd3ZmdGYyWYELju7Y7oA-89" value="+ create_phone(self, record, user_input=None, update=False)" style="text;strokeColor=none;fillColor=none;align=left;verticalAlign=top;spacingLeft=4;spacingRight=4;overflow=hidden;rotatable=0;points=[[0,0.5],[1,0.5]];portConstraint=eastwest;whiteSpace=wrap;html=1;" parent="Dd3ZmdGYyWYELju7Y7oA-81" vertex="1">
          <mxGeometry y="190" width="340" height="26" as="geometry" />
        </mxCell>
        <mxCell id="Dd3ZmdGYyWYELju7Y7oA-91" value="+ create_email(self, record, user_email)" style="text;strokeColor=none;fillColor=none;align=left;verticalAlign=top;spacingLeft=4;spacingRight=4;overflow=hidden;rotatable=0;points=[[0,0.5],[1,0.5]];portConstraint=eastwest;whiteSpace=wrap;html=1;" parent="Dd3ZmdGYyWYELju7Y7oA-81" vertex="1">
          <mxGeometry y="216" width="340" height="26" as="geometry" />
        </mxCell>
        <mxCell id="Dd3ZmdGYyWYELju7Y7oA-92" value="+ create_birthday(self, record, user_birthday)" style="text;strokeColor=none;fillColor=none;align=left;verticalAlign=top;spacingLeft=4;spacingRight=4;overflow=hidden;rotatable=0;points=[[0,0.5],[1,0.5]];portConstraint=eastwest;whiteSpace=wrap;html=1;" parent="Dd3ZmdGYyWYELju7Y7oA-81" vertex="1">
          <mxGeometry y="242" width="340" height="26" as="geometry" />
        </mxCell>
        <mxCell id="Dd3ZmdGYyWYELju7Y7oA-90" value="+ home_address_create(self, record, user_address)" style="text;strokeColor=none;fillColor=none;align=left;verticalAlign=top;spacingLeft=4;spacingRight=4;overflow=hidden;rotatable=0;points=[[0,0.5],[1,0.5]];portConstraint=eastwest;whiteSpace=wrap;html=1;" parent="Dd3ZmdGYyWYELju7Y7oA-81" vertex="1">
          <mxGeometry y="268" width="340" height="26" as="geometry" />
        </mxCell>
        <mxCell id="Dd3ZmdGYyWYELju7Y7oA-93" value="+ formatting_record(self, record)" style="text;strokeColor=none;fillColor=none;align=left;verticalAlign=top;spacingLeft=4;spacingRight=4;overflow=hidden;rotatable=0;points=[[0,0.5],[1,0.5]];portConstraint=eastwest;whiteSpace=wrap;html=1;" parent="Dd3ZmdGYyWYELju7Y7oA-81" vertex="1">
          <mxGeometry y="294" width="340" height="26" as="geometry" />
        </mxCell>
        <mxCell id="Dd3ZmdGYyWYELju7Y7oA-97" value="" style="group" parent="1" vertex="1" connectable="0">
          <mxGeometry x="-390" y="1170" width="505" height="430" as="geometry" />
        </mxCell>
        <mxCell id="Dd3ZmdGYyWYELju7Y7oA-39" value="Field" style="swimlane;fontStyle=1;align=center;verticalAlign=top;childLayout=stackLayout;horizontal=1;startSize=26;horizontalStack=0;resizeParent=1;resizeParentMax=0;resizeLast=0;collapsible=1;marginBottom=0;whiteSpace=wrap;html=1;" parent="Dd3ZmdGYyWYELju7Y7oA-97" vertex="1">
          <mxGeometry x="170" width="160" height="86" as="geometry" />
        </mxCell>
        <mxCell id="Dd3ZmdGYyWYELju7Y7oA-40" value="- value" style="text;strokeColor=none;fillColor=none;align=left;verticalAlign=top;spacingLeft=4;spacingRight=4;overflow=hidden;rotatable=0;points=[[0,0.5],[1,0.5]];portConstraint=eastwest;whiteSpace=wrap;html=1;" parent="Dd3ZmdGYyWYELju7Y7oA-39" vertex="1">
          <mxGeometry y="26" width="160" height="26" as="geometry" />
        </mxCell>
        <mxCell id="Dd3ZmdGYyWYELju7Y7oA-41" value="" style="line;strokeWidth=1;fillColor=none;align=left;verticalAlign=middle;spacingTop=-1;spacingLeft=3;spacingRight=3;rotatable=0;labelPosition=right;points=[];portConstraint=eastwest;strokeColor=inherit;" parent="Dd3ZmdGYyWYELju7Y7oA-39" vertex="1">
          <mxGeometry y="52" width="160" height="8" as="geometry" />
        </mxCell>
        <mxCell id="Dd3ZmdGYyWYELju7Y7oA-42" value="+ value(self)" style="text;strokeColor=none;fillColor=none;align=left;verticalAlign=top;spacingLeft=4;spacingRight=4;overflow=hidden;rotatable=0;points=[[0,0.5],[1,0.5]];portConstraint=eastwest;whiteSpace=wrap;html=1;" parent="Dd3ZmdGYyWYELju7Y7oA-39" vertex="1">
          <mxGeometry y="60" width="160" height="26" as="geometry" />
        </mxCell>
        <mxCell id="Dd3ZmdGYyWYELju7Y7oA-68" style="edgeStyle=orthogonalEdgeStyle;rounded=0;orthogonalLoop=1;jettySize=auto;html=1;" parent="Dd3ZmdGYyWYELju7Y7oA-97" source="Dd3ZmdGYyWYELju7Y7oA-48" target="Dd3ZmdGYyWYELju7Y7oA-39" edge="1">
          <mxGeometry relative="1" as="geometry">
            <Array as="points">
              <mxPoint x="250" y="180" />
            </Array>
          </mxGeometry>
        </mxCell>
        <mxCell id="Dd3ZmdGYyWYELju7Y7oA-48" value="Email" style="swimlane;fontStyle=1;align=center;verticalAlign=top;childLayout=stackLayout;horizontal=1;startSize=26;horizontalStack=0;resizeParent=1;resizeParentMax=0;resizeLast=0;collapsible=1;marginBottom=0;whiteSpace=wrap;html=1;" parent="Dd3ZmdGYyWYELju7Y7oA-97" vertex="1">
          <mxGeometry x="70" y="210" width="160" height="52" as="geometry" />
        </mxCell>
        <mxCell id="Dd3ZmdGYyWYELju7Y7oA-51" value="+ validate_email(self,email)" style="text;strokeColor=none;fillColor=none;align=left;verticalAlign=top;spacingLeft=4;spacingRight=4;overflow=hidden;rotatable=0;points=[[0,0.5],[1,0.5]];portConstraint=eastwest;whiteSpace=wrap;html=1;" parent="Dd3ZmdGYyWYELju7Y7oA-48" vertex="1">
          <mxGeometry y="26" width="160" height="26" as="geometry" />
        </mxCell>
        <mxCell id="Dd3ZmdGYyWYELju7Y7oA-69" style="edgeStyle=orthogonalEdgeStyle;rounded=0;orthogonalLoop=1;jettySize=auto;html=1;" parent="Dd3ZmdGYyWYELju7Y7oA-97" source="Dd3ZmdGYyWYELju7Y7oA-53" target="Dd3ZmdGYyWYELju7Y7oA-39" edge="1">
          <mxGeometry relative="1" as="geometry">
            <Array as="points">
              <mxPoint x="420" y="180" />
              <mxPoint x="250" y="180" />
            </Array>
          </mxGeometry>
        </mxCell>
        <mxCell id="Dd3ZmdGYyWYELju7Y7oA-53" value="Phone" style="swimlane;fontStyle=1;align=center;verticalAlign=top;childLayout=stackLayout;horizontal=1;startSize=26;horizontalStack=0;resizeParent=1;resizeParentMax=0;resizeLast=0;collapsible=1;marginBottom=0;whiteSpace=wrap;html=1;" parent="Dd3ZmdGYyWYELju7Y7oA-97" vertex="1">
          <mxGeometry x="270" y="210" width="200" height="86" as="geometry" />
        </mxCell>
        <mxCell id="Dd3ZmdGYyWYELju7Y7oA-54" value="+ value" style="text;strokeColor=none;fillColor=none;align=left;verticalAlign=top;spacingLeft=4;spacingRight=4;overflow=hidden;rotatable=0;points=[[0,0.5],[1,0.5]];portConstraint=eastwest;whiteSpace=wrap;html=1;" parent="Dd3ZmdGYyWYELju7Y7oA-53" vertex="1">
          <mxGeometry y="26" width="200" height="26" as="geometry" />
        </mxCell>
        <mxCell id="Dd3ZmdGYyWYELju7Y7oA-55" value="" style="line;strokeWidth=1;fillColor=none;align=left;verticalAlign=middle;spacingTop=-1;spacingLeft=3;spacingRight=3;rotatable=0;labelPosition=right;points=[];portConstraint=eastwest;strokeColor=inherit;" parent="Dd3ZmdGYyWYELju7Y7oA-53" vertex="1">
          <mxGeometry y="52" width="200" height="8" as="geometry" />
        </mxCell>
        <mxCell id="Dd3ZmdGYyWYELju7Y7oA-56" value="+ validate_phone(self, phone)" style="text;strokeColor=none;fillColor=none;align=left;verticalAlign=top;spacingLeft=4;spacingRight=4;overflow=hidden;rotatable=0;points=[[0,0.5],[1,0.5]];portConstraint=eastwest;whiteSpace=wrap;html=1;" parent="Dd3ZmdGYyWYELju7Y7oA-53" vertex="1">
          <mxGeometry y="60" width="200" height="26" as="geometry" />
        </mxCell>
        <mxCell id="Dd3ZmdGYyWYELju7Y7oA-70" style="edgeStyle=orthogonalEdgeStyle;rounded=0;orthogonalLoop=1;jettySize=auto;html=1;" parent="Dd3ZmdGYyWYELju7Y7oA-97" source="Dd3ZmdGYyWYELju7Y7oA-57" target="Dd3ZmdGYyWYELju7Y7oA-39" edge="1">
          <mxGeometry relative="1" as="geometry" />
        </mxCell>
        <mxCell id="Dd3ZmdGYyWYELju7Y7oA-57" value="&lt;p style=&quot;margin:0px;margin-top:4px;text-align:center;&quot;&gt;&lt;br&gt;&lt;b&gt;HomeAddress&lt;/b&gt;&lt;/p&gt;" style="verticalAlign=top;align=left;overflow=fill;fontSize=12;fontFamily=Helvetica;html=1;whiteSpace=wrap;" parent="Dd3ZmdGYyWYELju7Y7oA-97" vertex="1">
          <mxGeometry x="345" y="120" width="160" height="40" as="geometry" />
        </mxCell>
        <mxCell id="Dd3ZmdGYyWYELju7Y7oA-67" style="edgeStyle=orthogonalEdgeStyle;rounded=0;orthogonalLoop=1;jettySize=auto;html=1;" parent="Dd3ZmdGYyWYELju7Y7oA-97" source="Dd3ZmdGYyWYELju7Y7oA-60" target="Dd3ZmdGYyWYELju7Y7oA-39" edge="1">
          <mxGeometry relative="1" as="geometry" />
        </mxCell>
        <mxCell id="Dd3ZmdGYyWYELju7Y7oA-60" value="&lt;p style=&quot;margin:0px;margin-top:4px;text-align:center;&quot;&gt;&lt;br&gt;&lt;b&gt;Name&lt;/b&gt;&lt;/p&gt;" style="verticalAlign=top;align=left;overflow=fill;fontSize=12;fontFamily=Helvetica;html=1;whiteSpace=wrap;" parent="Dd3ZmdGYyWYELju7Y7oA-97" vertex="1">
          <mxGeometry y="120" width="160" height="40" as="geometry" />
        </mxCell>
        <mxCell id="Dd3ZmdGYyWYELju7Y7oA-71" style="edgeStyle=orthogonalEdgeStyle;rounded=0;orthogonalLoop=1;jettySize=auto;html=1;" parent="Dd3ZmdGYyWYELju7Y7oA-97" source="Dd3ZmdGYyWYELju7Y7oA-62" target="Dd3ZmdGYyWYELju7Y7oA-39" edge="1">
          <mxGeometry relative="1" as="geometry" />
        </mxCell>
        <mxCell id="Dd3ZmdGYyWYELju7Y7oA-62" value="Birthday" style="swimlane;fontStyle=1;align=center;verticalAlign=top;childLayout=stackLayout;horizontal=1;startSize=26;horizontalStack=0;resizeParent=1;resizeParentMax=0;resizeLast=0;collapsible=1;marginBottom=0;whiteSpace=wrap;html=1;" parent="Dd3ZmdGYyWYELju7Y7oA-97" vertex="1">
          <mxGeometry x="145" y="318" width="210" height="112" as="geometry" />
        </mxCell>
        <mxCell id="Dd3ZmdGYyWYELju7Y7oA-63" value="+ value" style="text;strokeColor=none;fillColor=none;align=left;verticalAlign=top;spacingLeft=4;spacingRight=4;overflow=hidden;rotatable=0;points=[[0,0.5],[1,0.5]];portConstraint=eastwest;whiteSpace=wrap;html=1;" parent="Dd3ZmdGYyWYELju7Y7oA-62" vertex="1">
          <mxGeometry y="26" width="210" height="26" as="geometry" />
        </mxCell>
        <mxCell id="Dd3ZmdGYyWYELju7Y7oA-64" value="" style="line;strokeWidth=1;fillColor=none;align=left;verticalAlign=middle;spacingTop=-1;spacingLeft=3;spacingRight=3;rotatable=0;labelPosition=right;points=[];portConstraint=eastwest;strokeColor=inherit;" parent="Dd3ZmdGYyWYELju7Y7oA-62" vertex="1">
          <mxGeometry y="52" width="210" height="8" as="geometry" />
        </mxCell>
        <mxCell id="Dd3ZmdGYyWYELju7Y7oA-65" value="+ set_value(self,value)" style="text;strokeColor=none;fillColor=none;align=left;verticalAlign=top;spacingLeft=4;spacingRight=4;overflow=hidden;rotatable=0;points=[[0,0.5],[1,0.5]];portConstraint=eastwest;whiteSpace=wrap;html=1;" parent="Dd3ZmdGYyWYELju7Y7oA-62" vertex="1">
          <mxGeometry y="60" width="210" height="26" as="geometry" />
        </mxCell>
        <mxCell id="Dd3ZmdGYyWYELju7Y7oA-66" value="+ validate_birthday(self,birthday)&amp;nbsp;" style="text;strokeColor=none;fillColor=none;align=left;verticalAlign=top;spacingLeft=4;spacingRight=4;overflow=hidden;rotatable=0;points=[[0,0.5],[1,0.5]];portConstraint=eastwest;whiteSpace=wrap;html=1;" parent="Dd3ZmdGYyWYELju7Y7oA-62" vertex="1">
          <mxGeometry y="86" width="210" height="26" as="geometry" />
        </mxCell>
        <mxCell id="Dd3ZmdGYyWYELju7Y7oA-113" style="edgeStyle=orthogonalEdgeStyle;rounded=0;orthogonalLoop=1;jettySize=auto;html=1;" parent="1" source="Dd3ZmdGYyWYELju7Y7oA-100" target="Dd3ZmdGYyWYELju7Y7oA-8" edge="1">
          <mxGeometry relative="1" as="geometry" />
        </mxCell>
        <mxCell id="Dd3ZmdGYyWYELju7Y7oA-100" value="UserDict" style="swimlane;fontStyle=0;childLayout=stackLayout;horizontal=1;startSize=26;fillColor=none;horizontalStack=0;resizeParent=1;resizeParentMax=0;resizeLast=0;collapsible=1;marginBottom=0;whiteSpace=wrap;html=1;" parent="1" vertex="1">
          <mxGeometry x="355" y="290" width="140" height="52" as="geometry" />
        </mxCell>
        <mxCell id="Dd3ZmdGYyWYELju7Y7oA-101" value="+ data" style="text;strokeColor=none;fillColor=none;align=left;verticalAlign=top;spacingLeft=4;spacingRight=4;overflow=hidden;rotatable=0;points=[[0,0.5],[1,0.5]];portConstraint=eastwest;whiteSpace=wrap;html=1;" parent="Dd3ZmdGYyWYELju7Y7oA-100" vertex="1">
          <mxGeometry y="26" width="140" height="26" as="geometry" />
        </mxCell>
        <mxCell id="Dd3ZmdGYyWYELju7Y7oA-114" style="edgeStyle=orthogonalEdgeStyle;rounded=0;orthogonalLoop=1;jettySize=auto;html=1;" parent="1" source="Dd3ZmdGYyWYELju7Y7oA-102" target="Dd3ZmdGYyWYELju7Y7oA-100" edge="1">
          <mxGeometry relative="1" as="geometry" />
        </mxCell>
        <mxCell id="Dd3ZmdGYyWYELju7Y7oA-165" style="edgeStyle=orthogonalEdgeStyle;rounded=0;orthogonalLoop=1;jettySize=auto;html=1;endArrow=classic;endFill=1;startArrow=diamond;startFill=1;" parent="1" source="Dd3ZmdGYyWYELju7Y7oA-102" target="Dd3ZmdGYyWYELju7Y7oA-156" edge="1">
          <mxGeometry relative="1" as="geometry">
            <Array as="points">
              <mxPoint x="560" y="408" />
              <mxPoint x="560" y="408" />
            </Array>
          </mxGeometry>
        </mxCell>
        <mxCell id="Dd3ZmdGYyWYELju7Y7oA-102" value="Notebook" style="swimlane;fontStyle=1;align=center;verticalAlign=top;childLayout=stackLayout;horizontal=1;startSize=26;horizontalStack=0;resizeParent=1;resizeParentMax=0;resizeLast=0;collapsible=1;marginBottom=0;whiteSpace=wrap;html=1;" parent="1" vertex="1">
          <mxGeometry x="310" y="390" width="230" height="268" as="geometry" />
        </mxCell>
        <mxCell id="Dd3ZmdGYyWYELju7Y7oA-103" value="+ data" style="text;strokeColor=none;fillColor=none;align=left;verticalAlign=top;spacingLeft=4;spacingRight=4;overflow=hidden;rotatable=0;points=[[0,0.5],[1,0.5]];portConstraint=eastwest;whiteSpace=wrap;html=1;" parent="Dd3ZmdGYyWYELju7Y7oA-102" vertex="1">
          <mxGeometry y="26" width="230" height="26" as="geometry" />
        </mxCell>
        <mxCell id="Dd3ZmdGYyWYELju7Y7oA-104" value="- instance" style="text;strokeColor=none;fillColor=none;align=left;verticalAlign=top;spacingLeft=4;spacingRight=4;overflow=hidden;rotatable=0;points=[[0,0.5],[1,0.5]];portConstraint=eastwest;whiteSpace=wrap;html=1;" parent="Dd3ZmdGYyWYELju7Y7oA-102" vertex="1">
          <mxGeometry y="52" width="230" height="26" as="geometry" />
        </mxCell>
        <mxCell id="Dd3ZmdGYyWYELju7Y7oA-105" value="+ file_name" style="text;strokeColor=none;fillColor=none;align=left;verticalAlign=top;spacingLeft=4;spacingRight=4;overflow=hidden;rotatable=0;points=[[0,0.5],[1,0.5]];portConstraint=eastwest;whiteSpace=wrap;html=1;" parent="Dd3ZmdGYyWYELju7Y7oA-102" vertex="1">
          <mxGeometry y="78" width="230" height="26" as="geometry" />
        </mxCell>
        <mxCell id="Dd3ZmdGYyWYELju7Y7oA-106" value="" style="line;strokeWidth=1;fillColor=none;align=left;verticalAlign=middle;spacingTop=-1;spacingLeft=3;spacingRight=3;rotatable=0;labelPosition=right;points=[];portConstraint=eastwest;strokeColor=inherit;" parent="Dd3ZmdGYyWYELju7Y7oA-102" vertex="1">
          <mxGeometry y="104" width="230" height="8" as="geometry" />
        </mxCell>
        <mxCell id="Dd3ZmdGYyWYELju7Y7oA-107" value="- new (cls, *args, **kwargs)" style="text;strokeColor=none;fillColor=none;align=left;verticalAlign=top;spacingLeft=4;spacingRight=4;overflow=hidden;rotatable=0;points=[[0,0.5],[1,0.5]];portConstraint=eastwest;whiteSpace=wrap;html=1;" parent="Dd3ZmdGYyWYELju7Y7oA-102" vertex="1">
          <mxGeometry y="112" width="230" height="26" as="geometry" />
        </mxCell>
        <mxCell id="Dd3ZmdGYyWYELju7Y7oA-108" value="+ show_all_records(self)" style="text;strokeColor=none;fillColor=none;align=left;verticalAlign=top;spacingLeft=4;spacingRight=4;overflow=hidden;rotatable=0;points=[[0,0.5],[1,0.5]];portConstraint=eastwest;whiteSpace=wrap;html=1;" parent="Dd3ZmdGYyWYELju7Y7oA-102" vertex="1">
          <mxGeometry y="138" width="230" height="26" as="geometry" />
        </mxCell>
        <mxCell id="Dd3ZmdGYyWYELju7Y7oA-109" value="+ iterate(self, n=1)" style="text;strokeColor=none;fillColor=none;align=left;verticalAlign=top;spacingLeft=4;spacingRight=4;overflow=hidden;rotatable=0;points=[[0,0.5],[1,0.5]];portConstraint=eastwest;whiteSpace=wrap;html=1;" parent="Dd3ZmdGYyWYELju7Y7oA-102" vertex="1">
          <mxGeometry y="164" width="230" height="26" as="geometry" />
        </mxCell>
        <mxCell id="Dd3ZmdGYyWYELju7Y7oA-110" value="+ add_record(self, record)" style="text;strokeColor=none;fillColor=none;align=left;verticalAlign=top;spacingLeft=4;spacingRight=4;overflow=hidden;rotatable=0;points=[[0,0.5],[1,0.5]];portConstraint=eastwest;whiteSpace=wrap;html=1;" parent="Dd3ZmdGYyWYELju7Y7oA-102" vertex="1">
          <mxGeometry y="190" width="230" height="26" as="geometry" />
        </mxCell>
        <mxCell id="Dd3ZmdGYyWYELju7Y7oA-111" value="+ save_notes(self)" style="text;strokeColor=none;fillColor=none;align=left;verticalAlign=top;spacingLeft=4;spacingRight=4;overflow=hidden;rotatable=0;points=[[0,0.5],[1,0.5]];portConstraint=eastwest;whiteSpace=wrap;html=1;" parent="Dd3ZmdGYyWYELju7Y7oA-102" vertex="1">
          <mxGeometry y="216" width="230" height="26" as="geometry" />
        </mxCell>
        <mxCell id="Dd3ZmdGYyWYELju7Y7oA-112" value="+ load_notes(self)" style="text;strokeColor=none;fillColor=none;align=left;verticalAlign=top;spacingLeft=4;spacingRight=4;overflow=hidden;rotatable=0;points=[[0,0.5],[1,0.5]];portConstraint=eastwest;whiteSpace=wrap;html=1;" parent="Dd3ZmdGYyWYELju7Y7oA-102" vertex="1">
          <mxGeometry y="242" width="230" height="26" as="geometry" />
        </mxCell>
        <mxCell id="Dd3ZmdGYyWYELju7Y7oA-128" style="edgeStyle=orthogonalEdgeStyle;rounded=0;orthogonalLoop=1;jettySize=auto;html=1;" parent="1" source="Dd3ZmdGYyWYELju7Y7oA-115" target="Dd3ZmdGYyWYELju7Y7oA-102" edge="1">
          <mxGeometry relative="1" as="geometry" />
        </mxCell>
        <mxCell id="Dd3ZmdGYyWYELju7Y7oA-115" value="Record" style="swimlane;fontStyle=1;align=center;verticalAlign=top;childLayout=stackLayout;horizontal=1;startSize=26;horizontalStack=0;resizeParent=1;resizeParentMax=0;resizeLast=0;collapsible=1;marginBottom=0;whiteSpace=wrap;html=1;" parent="1" vertex="1">
          <mxGeometry x="255" y="710" width="340" height="242" as="geometry" />
        </mxCell>
        <mxCell id="Dd3ZmdGYyWYELju7Y7oA-116" value="+ text" style="text;strokeColor=none;fillColor=none;align=left;verticalAlign=top;spacingLeft=4;spacingRight=4;overflow=hidden;rotatable=0;points=[[0,0.5],[1,0.5]];portConstraint=eastwest;whiteSpace=wrap;html=1;" parent="Dd3ZmdGYyWYELju7Y7oA-115" vertex="1">
          <mxGeometry y="26" width="340" height="26" as="geometry" />
        </mxCell>
        <mxCell id="Dd3ZmdGYyWYELju7Y7oA-117" value="+ title" style="text;strokeColor=none;fillColor=none;align=left;verticalAlign=top;spacingLeft=4;spacingRight=4;overflow=hidden;rotatable=0;points=[[0,0.5],[1,0.5]];portConstraint=eastwest;whiteSpace=wrap;html=1;" parent="Dd3ZmdGYyWYELju7Y7oA-115" vertex="1">
          <mxGeometry y="52" width="340" height="26" as="geometry" />
        </mxCell>
        <mxCell id="Dd3ZmdGYyWYELju7Y7oA-118" value="+ tags" style="text;strokeColor=none;fillColor=none;align=left;verticalAlign=top;spacingLeft=4;spacingRight=4;overflow=hidden;rotatable=0;points=[[0,0.5],[1,0.5]];portConstraint=eastwest;whiteSpace=wrap;html=1;" parent="Dd3ZmdGYyWYELju7Y7oA-115" vertex="1">
          <mxGeometry y="78" width="340" height="26" as="geometry" />
        </mxCell>
        <mxCell id="Dd3ZmdGYyWYELju7Y7oA-121" value="" style="line;strokeWidth=1;fillColor=none;align=left;verticalAlign=middle;spacingTop=-1;spacingLeft=3;spacingRight=3;rotatable=0;labelPosition=right;points=[];portConstraint=eastwest;strokeColor=inherit;" parent="Dd3ZmdGYyWYELju7Y7oA-115" vertex="1">
          <mxGeometry y="104" width="340" height="8" as="geometry" />
        </mxCell>
        <mxCell id="Dd3ZmdGYyWYELju7Y7oA-122" value="+ add_tags(self, tag)" style="text;strokeColor=none;fillColor=none;align=left;verticalAlign=top;spacingLeft=4;spacingRight=4;overflow=hidden;rotatable=0;points=[[0,0.5],[1,0.5]];portConstraint=eastwest;whiteSpace=wrap;html=1;" parent="Dd3ZmdGYyWYELju7Y7oA-115" vertex="1">
          <mxGeometry y="112" width="340" height="26" as="geometry" />
        </mxCell>
        <mxCell id="Dd3ZmdGYyWYELju7Y7oA-123" value="+ create_tag(self, record, user_tag=None, update=False)" style="text;strokeColor=none;fillColor=none;align=left;verticalAlign=top;spacingLeft=4;spacingRight=4;overflow=hidden;rotatable=0;points=[[0,0.5],[1,0.5]];portConstraint=eastwest;whiteSpace=wrap;html=1;" parent="Dd3ZmdGYyWYELju7Y7oA-115" vertex="1">
          <mxGeometry y="138" width="340" height="26" as="geometry" />
        </mxCell>
        <mxCell id="Dd3ZmdGYyWYELju7Y7oA-124" value="+ create_text(self, record, user_text)" style="text;strokeColor=none;fillColor=none;align=left;verticalAlign=top;spacingLeft=4;spacingRight=4;overflow=hidden;rotatable=0;points=[[0,0.5],[1,0.5]];portConstraint=eastwest;whiteSpace=wrap;html=1;" parent="Dd3ZmdGYyWYELju7Y7oA-115" vertex="1">
          <mxGeometry y="164" width="340" height="26" as="geometry" />
        </mxCell>
        <mxCell id="Dd3ZmdGYyWYELju7Y7oA-125" value="+ create_title(self, record, user_title)" style="text;strokeColor=none;fillColor=none;align=left;verticalAlign=top;spacingLeft=4;spacingRight=4;overflow=hidden;rotatable=0;points=[[0,0.5],[1,0.5]];portConstraint=eastwest;whiteSpace=wrap;html=1;" parent="Dd3ZmdGYyWYELju7Y7oA-115" vertex="1">
          <mxGeometry y="190" width="340" height="26" as="geometry" />
        </mxCell>
        <mxCell id="Dd3ZmdGYyWYELju7Y7oA-127" value="+ formatting_record(self, record)" style="text;strokeColor=none;fillColor=none;align=left;verticalAlign=top;spacingLeft=4;spacingRight=4;overflow=hidden;rotatable=0;points=[[0,0.5],[1,0.5]];portConstraint=eastwest;whiteSpace=wrap;html=1;" parent="Dd3ZmdGYyWYELju7Y7oA-115" vertex="1">
          <mxGeometry y="216" width="340" height="26" as="geometry" />
        </mxCell>
        <mxCell id="Dd3ZmdGYyWYELju7Y7oA-154" value="" style="group" parent="1" vertex="1" connectable="0">
          <mxGeometry x="280" y="1010" width="315" height="324" as="geometry" />
        </mxCell>
        <mxCell id="Dd3ZmdGYyWYELju7Y7oA-130" value="Field" style="swimlane;fontStyle=1;align=center;verticalAlign=top;childLayout=stackLayout;horizontal=1;startSize=26;horizontalStack=0;resizeParent=1;resizeParentMax=0;resizeLast=0;collapsible=1;marginBottom=0;whiteSpace=wrap;html=1;" parent="Dd3ZmdGYyWYELju7Y7oA-154" vertex="1">
          <mxGeometry x="63" width="160" height="86" as="geometry" />
        </mxCell>
        <mxCell id="Dd3ZmdGYyWYELju7Y7oA-131" value="- value" style="text;strokeColor=none;fillColor=none;align=left;verticalAlign=top;spacingLeft=4;spacingRight=4;overflow=hidden;rotatable=0;points=[[0,0.5],[1,0.5]];portConstraint=eastwest;whiteSpace=wrap;html=1;" parent="Dd3ZmdGYyWYELju7Y7oA-130" vertex="1">
          <mxGeometry y="26" width="160" height="26" as="geometry" />
        </mxCell>
        <mxCell id="Dd3ZmdGYyWYELju7Y7oA-132" value="" style="line;strokeWidth=1;fillColor=none;align=left;verticalAlign=middle;spacingTop=-1;spacingLeft=3;spacingRight=3;rotatable=0;labelPosition=right;points=[];portConstraint=eastwest;strokeColor=inherit;" parent="Dd3ZmdGYyWYELju7Y7oA-130" vertex="1">
          <mxGeometry y="52" width="160" height="8" as="geometry" />
        </mxCell>
        <mxCell id="Dd3ZmdGYyWYELju7Y7oA-133" value="+ value(self)" style="text;strokeColor=none;fillColor=none;align=left;verticalAlign=top;spacingLeft=4;spacingRight=4;overflow=hidden;rotatable=0;points=[[0,0.5],[1,0.5]];portConstraint=eastwest;whiteSpace=wrap;html=1;" parent="Dd3ZmdGYyWYELju7Y7oA-130" vertex="1">
          <mxGeometry y="60" width="160" height="26" as="geometry" />
        </mxCell>
        <mxCell id="Dd3ZmdGYyWYELju7Y7oA-134" style="edgeStyle=orthogonalEdgeStyle;rounded=0;orthogonalLoop=1;jettySize=auto;html=1;" parent="Dd3ZmdGYyWYELju7Y7oA-154" source="Dd3ZmdGYyWYELju7Y7oA-135" target="Dd3ZmdGYyWYELju7Y7oA-130" edge="1">
          <mxGeometry relative="1" as="geometry">
            <Array as="points">
              <mxPoint x="143" y="180" />
            </Array>
          </mxGeometry>
        </mxCell>
        <mxCell id="Dd3ZmdGYyWYELju7Y7oA-135" value="Title" style="swimlane;fontStyle=1;align=center;verticalAlign=top;childLayout=stackLayout;horizontal=1;startSize=26;horizontalStack=0;resizeParent=1;resizeParentMax=0;resizeLast=0;collapsible=1;marginBottom=0;whiteSpace=wrap;html=1;" parent="Dd3ZmdGYyWYELju7Y7oA-154" vertex="1">
          <mxGeometry y="150" width="110" height="52" as="geometry" />
        </mxCell>
        <mxCell id="Dd3ZmdGYyWYELju7Y7oA-136" value="+ value" style="text;strokeColor=none;fillColor=none;align=left;verticalAlign=top;spacingLeft=4;spacingRight=4;overflow=hidden;rotatable=0;points=[[0,0.5],[1,0.5]];portConstraint=eastwest;whiteSpace=wrap;html=1;" parent="Dd3ZmdGYyWYELju7Y7oA-135" vertex="1">
          <mxGeometry y="26" width="110" height="26" as="geometry" />
        </mxCell>
        <mxCell id="Dd3ZmdGYyWYELju7Y7oA-137" style="edgeStyle=orthogonalEdgeStyle;rounded=0;orthogonalLoop=1;jettySize=auto;html=1;" parent="Dd3ZmdGYyWYELju7Y7oA-154" source="Dd3ZmdGYyWYELju7Y7oA-138" target="Dd3ZmdGYyWYELju7Y7oA-130" edge="1">
          <mxGeometry relative="1" as="geometry">
            <Array as="points">
              <mxPoint x="313" y="180" />
              <mxPoint x="143" y="180" />
            </Array>
          </mxGeometry>
        </mxCell>
        <mxCell id="Dd3ZmdGYyWYELju7Y7oA-138" value="Text" style="swimlane;fontStyle=1;align=center;verticalAlign=top;childLayout=stackLayout;horizontal=1;startSize=26;horizontalStack=0;resizeParent=1;resizeParentMax=0;resizeLast=0;collapsible=1;marginBottom=0;whiteSpace=wrap;html=1;" parent="Dd3ZmdGYyWYELju7Y7oA-154" vertex="1">
          <mxGeometry x="175" y="150" width="140" height="52" as="geometry" />
        </mxCell>
        <mxCell id="Dd3ZmdGYyWYELju7Y7oA-139" value="+ value" style="text;strokeColor=none;fillColor=none;align=left;verticalAlign=top;spacingLeft=4;spacingRight=4;overflow=hidden;rotatable=0;points=[[0,0.5],[1,0.5]];portConstraint=eastwest;whiteSpace=wrap;html=1;" parent="Dd3ZmdGYyWYELju7Y7oA-138" vertex="1">
          <mxGeometry y="26" width="140" height="26" as="geometry" />
        </mxCell>
        <mxCell id="Dd3ZmdGYyWYELju7Y7oA-146" style="edgeStyle=orthogonalEdgeStyle;rounded=0;orthogonalLoop=1;jettySize=auto;html=1;" parent="Dd3ZmdGYyWYELju7Y7oA-154" source="Dd3ZmdGYyWYELju7Y7oA-147" target="Dd3ZmdGYyWYELju7Y7oA-130" edge="1">
          <mxGeometry relative="1" as="geometry" />
        </mxCell>
        <mxCell id="Dd3ZmdGYyWYELju7Y7oA-147" value="Tag" style="swimlane;fontStyle=1;align=center;verticalAlign=top;childLayout=stackLayout;horizontal=1;startSize=26;horizontalStack=0;resizeParent=1;resizeParentMax=0;resizeLast=0;collapsible=1;marginBottom=0;whiteSpace=wrap;html=1;" parent="Dd3ZmdGYyWYELju7Y7oA-154" vertex="1">
          <mxGeometry x="38" y="238" width="210" height="86" as="geometry" />
        </mxCell>
        <mxCell id="Dd3ZmdGYyWYELju7Y7oA-148" value="+ value" style="text;strokeColor=none;fillColor=none;align=left;verticalAlign=top;spacingLeft=4;spacingRight=4;overflow=hidden;rotatable=0;points=[[0,0.5],[1,0.5]];portConstraint=eastwest;whiteSpace=wrap;html=1;" parent="Dd3ZmdGYyWYELju7Y7oA-147" vertex="1">
          <mxGeometry y="26" width="210" height="26" as="geometry" />
        </mxCell>
        <mxCell id="Dd3ZmdGYyWYELju7Y7oA-149" value="" style="line;strokeWidth=1;fillColor=none;align=left;verticalAlign=middle;spacingTop=-1;spacingLeft=3;spacingRight=3;rotatable=0;labelPosition=right;points=[];portConstraint=eastwest;strokeColor=inherit;" parent="Dd3ZmdGYyWYELju7Y7oA-147" vertex="1">
          <mxGeometry y="52" width="210" height="8" as="geometry" />
        </mxCell>
        <mxCell id="Dd3ZmdGYyWYELju7Y7oA-151" value="+ validate_tag(self,tag)&amp;nbsp;" style="text;strokeColor=none;fillColor=none;align=left;verticalAlign=top;spacingLeft=4;spacingRight=4;overflow=hidden;rotatable=0;points=[[0,0.5],[1,0.5]];portConstraint=eastwest;whiteSpace=wrap;html=1;" parent="Dd3ZmdGYyWYELju7Y7oA-147" vertex="1">
          <mxGeometry y="60" width="210" height="26" as="geometry" />
        </mxCell>
        <mxCell id="Dd3ZmdGYyWYELju7Y7oA-155" style="edgeStyle=orthogonalEdgeStyle;rounded=0;orthogonalLoop=1;jettySize=auto;html=1;" parent="1" source="Dd3ZmdGYyWYELju7Y7oA-130" target="Dd3ZmdGYyWYELju7Y7oA-115" edge="1">
          <mxGeometry relative="1" as="geometry">
            <Array as="points">
              <mxPoint x="425" y="1000" />
              <mxPoint x="425" y="1000" />
            </Array>
          </mxGeometry>
        </mxCell>
        <mxCell id="Dd3ZmdGYyWYELju7Y7oA-156" value="CommandsHandler" style="swimlane;fontStyle=1;align=center;verticalAlign=top;childLayout=stackLayout;horizontal=1;startSize=26;horizontalStack=0;resizeParent=1;resizeParentMax=0;resizeLast=0;collapsible=1;marginBottom=0;whiteSpace=wrap;html=1;" parent="1" vertex="1">
          <mxGeometry x="595" y="300" width="190" height="216" as="geometry" />
        </mxCell>
        <mxCell id="Dd3ZmdGYyWYELju7Y7oA-157" value="+ notebook" style="text;strokeColor=none;fillColor=none;align=left;verticalAlign=top;spacingLeft=4;spacingRight=4;overflow=hidden;rotatable=0;points=[[0,0.5],[1,0.5]];portConstraint=eastwest;whiteSpace=wrap;html=1;" parent="Dd3ZmdGYyWYELju7Y7oA-156" vertex="1">
          <mxGeometry y="26" width="190" height="26" as="geometry" />
        </mxCell>
        <mxCell id="Dd3ZmdGYyWYELju7Y7oA-158" value="" style="line;strokeWidth=1;fillColor=none;align=left;verticalAlign=middle;spacingTop=-1;spacingLeft=3;spacingRight=3;rotatable=0;labelPosition=right;points=[];portConstraint=eastwest;strokeColor=inherit;" parent="Dd3ZmdGYyWYELju7Y7oA-156" vertex="1">
          <mxGeometry y="52" width="190" height="8" as="geometry" />
        </mxCell>
        <mxCell id="Dd3ZmdGYyWYELju7Y7oA-159" value="+ add_note(self)" style="text;strokeColor=none;fillColor=none;align=left;verticalAlign=top;spacingLeft=4;spacingRight=4;overflow=hidden;rotatable=0;points=[[0,0.5],[1,0.5]];portConstraint=eastwest;whiteSpace=wrap;html=1;" parent="Dd3ZmdGYyWYELju7Y7oA-156" vertex="1">
          <mxGeometry y="60" width="190" height="26" as="geometry" />
        </mxCell>
        <mxCell id="Dd3ZmdGYyWYELju7Y7oA-160" value="+ show_all_notes(self)" style="text;strokeColor=none;fillColor=none;align=left;verticalAlign=top;spacingLeft=4;spacingRight=4;overflow=hidden;rotatable=0;points=[[0,0.5],[1,0.5]];portConstraint=eastwest;whiteSpace=wrap;html=1;" parent="Dd3ZmdGYyWYELju7Y7oA-156" vertex="1">
          <mxGeometry y="86" width="190" height="26" as="geometry" />
        </mxCell>
        <mxCell id="Dd3ZmdGYyWYELju7Y7oA-161" value="+ find_note(self)" style="text;strokeColor=none;fillColor=none;align=left;verticalAlign=top;spacingLeft=4;spacingRight=4;overflow=hidden;rotatable=0;points=[[0,0.5],[1,0.5]];portConstraint=eastwest;whiteSpace=wrap;html=1;" parent="Dd3ZmdGYyWYELju7Y7oA-156" vertex="1">
          <mxGeometry y="112" width="190" height="26" as="geometry" />
        </mxCell>
        <mxCell id="Dd3ZmdGYyWYELju7Y7oA-162" value="+ sort_notes_by_tag(self)" style="text;strokeColor=none;fillColor=none;align=left;verticalAlign=top;spacingLeft=4;spacingRight=4;overflow=hidden;rotatable=0;points=[[0,0.5],[1,0.5]];portConstraint=eastwest;whiteSpace=wrap;html=1;" parent="Dd3ZmdGYyWYELju7Y7oA-156" vertex="1">
          <mxGeometry y="138" width="190" height="26" as="geometry" />
        </mxCell>
        <mxCell id="Dd3ZmdGYyWYELju7Y7oA-163" value="+ change_note(self)" style="text;strokeColor=none;fillColor=none;align=left;verticalAlign=top;spacingLeft=4;spacingRight=4;overflow=hidden;rotatable=0;points=[[0,0.5],[1,0.5]];portConstraint=eastwest;whiteSpace=wrap;html=1;" parent="Dd3ZmdGYyWYELju7Y7oA-156" vertex="1">
          <mxGeometry y="164" width="190" height="26" as="geometry" />
        </mxCell>
        <mxCell id="Dd3ZmdGYyWYELju7Y7oA-164" value="+ remove_note(self)" style="text;strokeColor=none;fillColor=none;align=left;verticalAlign=top;spacingLeft=4;spacingRight=4;overflow=hidden;rotatable=0;points=[[0,0.5],[1,0.5]];portConstraint=eastwest;whiteSpace=wrap;html=1;" parent="Dd3ZmdGYyWYELju7Y7oA-156" vertex="1">
          <mxGeometry y="190" width="190" height="26" as="geometry" />
        </mxCell>
        <mxCell id="Dd3ZmdGYyWYELju7Y7oA-172" value="" style="shape=module;align=left;spacingLeft=20;align=center;verticalAlign=top;whiteSpace=wrap;html=1;" parent="1" vertex="1">
          <mxGeometry x="910" y="240" width="220" height="140" as="geometry" />
        </mxCell>
        <mxCell id="Dd3ZmdGYyWYELju7Y7oA-174" value="Cleaner" style="text;align=center;fontStyle=1;verticalAlign=middle;spacingLeft=3;spacingRight=3;strokeColor=none;rotatable=0;points=[[0,0.5],[1,0.5]];portConstraint=eastwest;html=1;" parent="1" vertex="1">
          <mxGeometry x="990" y="240" width="80" height="26" as="geometry" />
        </mxCell>
        <mxCell id="Dd3ZmdGYyWYELju7Y7oA-175" value="create_folders_from_list" style="text;strokeColor=none;fillColor=none;align=left;verticalAlign=top;spacingLeft=4;spacingRight=4;overflow=hidden;rotatable=0;points=[[0,0.5],[1,0.5]];portConstraint=eastwest;whiteSpace=wrap;html=1;" parent="1" vertex="1">
          <mxGeometry x="940" y="266" width="140" height="26" as="geometry" />
        </mxCell>
        <mxCell id="Dd3ZmdGYyWYELju7Y7oA-176" value="paths" style="text;strokeColor=none;fillColor=none;align=left;verticalAlign=top;spacingLeft=4;spacingRight=4;overflow=hidden;rotatable=0;points=[[0,0.5],[1,0.5]];portConstraint=eastwest;whiteSpace=wrap;html=1;" parent="1" vertex="1">
          <mxGeometry x="940" y="290" width="100" height="26" as="geometry" />
        </mxCell>
        <mxCell id="Dd3ZmdGYyWYELju7Y7oA-177" value="sort_files" style="text;strokeColor=none;fillColor=none;align=left;verticalAlign=top;spacingLeft=4;spacingRight=4;overflow=hidden;rotatable=0;points=[[0,0.5],[1,0.5]];portConstraint=eastwest;whiteSpace=wrap;html=1;" parent="1" vertex="1">
          <mxGeometry x="940" y="316" width="100" height="26" as="geometry" />
        </mxCell>
        <mxCell id="Dd3ZmdGYyWYELju7Y7oA-178" value="remove_empty_folders" style="text;strokeColor=none;fillColor=none;align=left;verticalAlign=top;spacingLeft=4;spacingRight=4;overflow=hidden;rotatable=0;points=[[0,0.5],[1,0.5]];portConstraint=eastwest;whiteSpace=wrap;html=1;" parent="1" vertex="1">
          <mxGeometry x="940" y="342" width="140" height="26" as="geometry" />
        </mxCell>
      </root>
    </mxGraphModel>
  </diagram>
</mxfile>
